ISO-10303-21;
HEADER;
FILE_DESCRIPTION (( 'STEP AP203' ),
    '1' );
FILE_NAME ('JIG-MOT097Z001-0_AP203.step',
    '2026-09-16T08:58:36',
    ( '' ),
    ( '' ),
    'SwSTEP 2.0',
    'SolidWorks 2018',
    '' );
FILE_SCHEMA (( 'CONFIG_CONTROL_DESIGN' ));
ENDSEC;

DATA;
#1 = VERTEX_POINT ( 'NONE', #368 ) ;
#2 =( GEOMETRIC_REPRESENTATION_CONTEXT ( 3 ) GLOBAL_UNCERTAINTY_ASSIGNED_CONTEXT ( ( #8 ) ) GLOBAL_UNIT_ASSIGNED_CONTEXT ( ( #92, #42, #210 ) ) REPRESENTATION_CONTEXT ( 'NONE', 'WORKASPACE' ) );
#3 = VECTOR ( 'NONE', #137, 1000.000000000000000 ) ;
#4 = ORIENTED_EDGE ( 'NONE', *, *, #34, .T. ) ;
#5 = ORIENTED_EDGE ( 'NONE', *, *, #100, .F. ) ;
#6 = EDGE_CURVE ( 'NONE', #241, #150, #365, .T. ) ;
#7 = DIRECTION ( 'NONE',  ( 1.000000000000000000, 0.000000000000000000, 0.000000000000000000 ) ) ;
#8 = UNCERTAINTY_MEASURE_WITH_UNIT (LENGTH_MEASURE( 1.000000000000000082E-05 ), #92, 'distance_accuracy_value', 'NONE');
#9 = FACE_OUTER_BOUND ( 'NONE', #332, .T. ) ;
#10 = EDGE_CURVE ( 'NONE', #296, #37, #149, .T. ) ;
#11 = APPLICATION_PROTOCOL_DEFINITION ( 'international standard', 'config_control_design', 1994, #152 ) ;
#12 = FACE_OUTER_BOUND ( 'NONE', #39, .T. ) ;
#13 = SECURITY_CLASSIFICATION_LEVEL ( 'unclassified' ) ;
#14 = ORIENTED_EDGE ( 'NONE', *, *, #129, .T. ) ;
#15 = CARTESIAN_POINT ( 'NONE',  ( 0.000000000000000000, 10.00000000000000000, -145.0000000000000000 ) ) ;
#16 = DIRECTION ( 'NONE',  ( 0.000000000000000000, 0.000000000000000000, 1.000000000000000000 ) ) ;
#17 = AXIS2_PLACEMENT_3D ( 'NONE', #183, #206, #7 ) ;
#18 = VECTOR ( 'NONE', #339, 1000.000000000000000 ) ;
#19 = ORIENTED_EDGE ( 'NONE', *, *, #376, .T. ) ;
#20 = CARTESIAN_POINT ( 'NONE',  ( 140.0000000000000000, 5.000000000000000000, -145.0000000000000000 ) ) ;
#21 = COORDINATED_UNIVERSAL_TIME_OFFSET ( 7, 0, .AHEAD. ) ;
#22 = DIRECTION ( 'NONE',  ( 0.000000000000000000, -1.000000000000000000, 0.000000000000000000 ) ) ;
#23 = FACE_BOUND ( 'NONE', #281, .T. ) ;
#24 = DIRECTION ( 'NONE',  ( 1.000000000000000000, 0.000000000000000000, 0.000000000000000000 ) ) ;
#25 = AXIS2_PLACEMENT_3D ( 'NONE', #227, #258, #285 ) ;
#26 = ORIENTED_EDGE ( 'NONE', *, *, #81, .T. ) ;
#27 = COORDINATED_UNIVERSAL_TIME_OFFSET ( 7, 0, .AHEAD. ) ;
#28 = EDGE_CURVE ( 'NONE', #132, #209, #290, .T. ) ;
#29 = DIRECTION ( 'NONE',  ( 0.000000000000000000, 0.000000000000000000, 1.000000000000000000 ) ) ;
#30 = CARTESIAN_POINT ( 'NONE',  ( 0.000000000000000000, 10.00000000000000000, -145.0000000000000000 ) ) ;
#31 = LINE ( 'NONE', #75, #189 ) ;
#32 = DIRECTION ( 'NONE',  ( -0.000000000000000000, -0.000000000000000000, 1.000000000000000000 ) ) ;
#33 = APPROVAL_DATE_TIME ( #334, #145 ) ;
#34 = EDGE_CURVE ( 'NONE', #174, #184, #271, .T. ) ;
#35 = LINE ( 'NONE', #385, #3 ) ;
#36 = ORIENTED_EDGE ( 'NONE', *, *, #163, .T. ) ;
#37 = VERTEX_POINT ( 'NONE', #294 ) ;
#38 = CC_DESIGN_APPROVAL ( #121, ( #168 ) ) ;
#39 = EDGE_LOOP ( 'NONE', ( #19, #138, #356, #62 ) ) ;
#40 = EDGE_CURVE ( 'NONE', #209, #1, #154, .T. ) ;
#41 = PERSON_AND_ORGANIZATION ( #324, #256 ) ;
#42 =( NAMED_UNIT ( * ) PLANE_ANGLE_UNIT ( ) SI_UNIT ( $, .RADIAN. ) );
#43 = VERTEX_POINT ( 'NONE', #99 ) ;
#44 = DATE_AND_TIME ( #278, #286 ) ;
#45 = DATE_TIME_ROLE ( 'classification_date' ) ;
#46 = EDGE_LOOP ( 'NONE', ( #232, #4 ) ) ;
#47 = CARTESIAN_POINT ( 'NONE',  ( 0.000000000000000000, 10.00000000000000000, 0.000000000000000000 ) ) ;
#48 = DIRECTION ( 'NONE',  ( 0.000000000000000000, -0.000000000000000000, -1.000000000000000000 ) ) ;
#49 = CARTESIAN_POINT ( 'NONE',  ( 145.0000000000000000, 10.00000000000000000, 0.000000000000000000 ) ) ;
#50 = FACE_OUTER_BOUND ( 'NONE', #125, .T. ) ;
#51 = ORIENTED_EDGE ( 'NONE', *, *, #84, .F. ) ;
#52 = CARTESIAN_POINT ( 'NONE',  ( 0.000000000000000000, 10.00000000000000000, 0.000000000000000000 ) ) ;
#53 = CARTESIAN_POINT ( 'NONE',  ( 2.750000000000000444, 5.000000000000000000, 0.000000000000000000 ) ) ;
#54 = ORIENTED_EDGE ( 'NONE', *, *, #81, .F. ) ;
#55 = CARTESIAN_POINT ( 'NONE',  ( 140.0000000000000000, 5.000000000000000000, -145.0000000000000000 ) ) ;
#56 = APPROVAL_DATE_TIME ( #371, #121 ) ;
#57 = EDGE_CURVE ( 'NONE', #43, #276, #318, .T. ) ;
#58 = CARTESIAN_POINT ( 'NONE',  ( 142.2500000000000284, 5.000000000000000000, -145.0000000000000000 ) ) ;
#59 = EDGE_LOOP ( 'NONE', ( #26, #108, #272, #196 ) ) ;
#60 = APPROVAL ( #242, 'UNSPECIFIED' ) ;
#61 = CC_DESIGN_PERSON_AND_ORGANIZATION_ASSIGNMENT ( #327, #182, ( #364 ) ) ;
#62 = ORIENTED_EDGE ( 'NONE', *, *, #28, .T. ) ;
#63 = EDGE_CURVE ( 'NONE', #66, #132, #178, .T. ) ;
#64 = ADVANCED_FACE ( 'NONE', ( #85 ), #322, .F. ) ;
#65 = ADVANCED_FACE ( 'NONE', ( #50 ), #302, .F. ) ;
#66 = VERTEX_POINT ( 'NONE', #49 ) ;
#67 = EDGE_CURVE ( 'NONE', #276, #1, #240, .T. ) ;
#68 = PERSON_AND_ORGANIZATION_ROLE ( 'design_supplier' ) ;
#69 = VECTOR ( 'NONE', #303, 1000.000000000000000 ) ;
#70 = ORIENTED_EDGE ( 'NONE', *, *, #57, .F. ) ;
#71 = DIRECTION ( 'NONE',  ( -1.000000000000000000, -0.000000000000000000, -0.000000000000000000 ) ) ;
#72 = CARTESIAN_POINT ( 'NONE',  ( 145.0000000000000000, 10.00000000000000000, 0.000000000000000000 ) ) ;
#73 = AXIS2_PLACEMENT_3D ( 'NONE', #333, #153, #98 ) ;
#74 = FACE_OUTER_BOUND ( 'NONE', #181, .T. ) ;
#75 = CARTESIAN_POINT ( 'NONE',  ( 0.000000000000000000, 0.000000000000000000, 0.000000000000000000 ) ) ;
#76 = ORIENTED_EDGE ( 'NONE', *, *, #129, .F. ) ;
#77 = DIRECTION ( 'NONE',  ( 0.000000000000000000, 0.000000000000000000, 1.000000000000000000 ) ) ;
#78 = FACE_OUTER_BOUND ( 'NONE', #59, .T. ) ;
#79 = ORIENTED_EDGE ( 'NONE', *, *, #207, .F. ) ;
#80 = CARTESIAN_POINT ( 'NONE',  ( 7.249999999999999112, 5.000000000000000000, -145.0000000000000000 ) ) ;
#81 = EDGE_CURVE ( 'NONE', #194, #43, #31, .T. ) ;
#82 = DIRECTION ( 'NONE',  ( 0.000000000000000000, 0.000000000000000000, -1.000000000000000000 ) ) ;
#83 = CIRCLE ( 'NONE', #89, 2.250000000000001776 ) ;
#84 = EDGE_CURVE ( 'NONE', #312, #241, #141, .T. ) ;
#85 = FACE_OUTER_BOUND ( 'NONE', #377, .T. ) ;
#86 = ORIENTED_EDGE ( 'NONE', *, *, #207, .T. ) ;
#87 = PERSON_AND_ORGANIZATION ( #324, #256 ) ;
#88 = CIRCLE ( 'NONE', #120, 2.250000000000001776 ) ;
#89 = AXIS2_PLACEMENT_3D ( 'NONE', #351, #115, #24 ) ;
#90 = CLOSED_SHELL ( 'NONE', ( #238, #64, #270, #124, #65, #330, #211, #127, #362, #147 ) ) ;
#91 = COORDINATED_UNIVERSAL_TIME_OFFSET ( 7, 0, .AHEAD. ) ;
#92 =( LENGTH_UNIT ( ) NAMED_UNIT ( * ) SI_UNIT ( .MILLI., .METRE. ) );
#93 = MECHANICAL_CONTEXT ( 'NONE', #328, 'mechanical' ) ;
#94 = VECTOR ( 'NONE', #319, 1000.000000000000000 ) ;
#95 = PERSON_AND_ORGANIZATION_ROLE ( 'classification_officer' ) ;
#96 = EDGE_LOOP ( 'NONE', ( #366, #359, #341, #190 ) ) ;
#97 = VERTEX_POINT ( 'NONE', #219 ) ;
#98 = DIRECTION ( 'NONE',  ( 1.000000000000000000, 0.000000000000000000, 0.000000000000000000 ) ) ;
#99 = CARTESIAN_POINT ( 'NONE',  ( 145.0000000000000000, 0.000000000000000000, 0.000000000000000000 ) ) ;
#100 = EDGE_CURVE ( 'NONE', #97, #150, #88, .T. ) ;
#101 = DIRECTION ( 'NONE',  ( 0.000000000000000000, 0.000000000000000000, -1.000000000000000000 ) ) ;
#102 = CC_DESIGN_PERSON_AND_ORGANIZATION_ASSIGNMENT ( #41, #146, ( #233 ) ) ;
#103 = CALENDAR_DATE ( 2026, 16, 9 ) ;
#104 = DIRECTION ( 'NONE',  ( -0.000000000000000000, -0.000000000000000000, 1.000000000000000000 ) ) ;
#105 = CARTESIAN_POINT ( 'NONE',  ( 140.0000000000000000, 5.000000000000000000, 0.000000000000000000 ) ) ;
#106 = AXIS2_PLACEMENT_3D ( 'NONE', #185, #251, #162 ) ;
#107 = LINE ( 'NONE', #160, #18 ) ;
#108 = ORIENTED_EDGE ( 'NONE', *, *, #163, .F. ) ;
#109 = CALENDAR_DATE ( 2026, 16, 9 ) ;
#110 = DIRECTION ( 'NONE',  ( -0.000000000000000000, -0.000000000000000000, 1.000000000000000000 ) ) ;
#111 = EDGE_LOOP ( 'NONE', ( #221, #269 ) ) ;
#112 = DIRECTION ( 'NONE',  ( 1.000000000000000000, 0.000000000000000000, 0.000000000000000000 ) ) ;
#113 = APPROVAL_PERSON_ORGANIZATION ( #314, #121, #273 ) ;
#114 = EDGE_CURVE ( 'NONE', #132, #276, #107, .T. ) ;
#115 = DIRECTION ( 'NONE',  ( 0.000000000000000000, 0.000000000000000000, 1.000000000000000000 ) ) ;
#116 = PRODUCT_RELATED_PRODUCT_CATEGORY ( 'detail', '', ( #233 ) ) ;
#117 = LINE ( 'NONE', #226, #94 ) ;
#118 = ORIENTED_EDGE ( 'NONE', *, *, #6, .T. ) ;
#119 = PERSON_AND_ORGANIZATION ( #324, #256 ) ;
#120 = AXIS2_PLACEMENT_3D ( 'NONE', #133, #16, #343 ) ;
#121 = APPROVAL ( #297, 'UNSPECIFIED' ) ;
#122 = DIRECTION ( 'NONE',  ( 1.000000000000000000, 0.000000000000000000, 0.000000000000000000 ) ) ;
#123 = FACE_BOUND ( 'NONE', #46, .T. ) ;
#124 = ADVANCED_FACE ( 'NONE', ( #280, #298, #78 ), #218, .F. ) ;
#125 = EDGE_LOOP ( 'NONE', ( #284, #266, #299, #36 ) ) ;
#126 = PERSON_AND_ORGANIZATION ( #324, #256 ) ;
#127 = ADVANCED_FACE ( 'NONE', ( #264 ), #130, .T. ) ;
#128 = ORIENTED_EDGE ( 'NONE', *, *, #202, .F. ) ;
#129 = EDGE_CURVE ( 'NONE', #150, #97, #169, .T. ) ;
#130 = PLANE ( 'NONE',  #176 ) ;
#131 = LINE ( 'NONE', #313, #310 ) ;
#132 = VERTEX_POINT ( 'NONE', #250 ) ;
#133 = CARTESIAN_POINT ( 'NONE',  ( 140.0000000000000000, 5.000000000000000000, 0.000000000000000000 ) ) ;
#134 = CC_DESIGN_PERSON_AND_ORGANIZATION_ASSIGNMENT ( #119, #68, ( #168 ) ) ;
#135 = DIRECTION ( 'NONE',  ( 0.000000000000000000, 0.000000000000000000, 1.000000000000000000 ) ) ;
#136 = DIRECTION ( 'NONE',  ( -0.000000000000000000, -0.000000000000000000, 1.000000000000000000 ) ) ;
#137 = DIRECTION ( 'NONE',  ( -0.000000000000000000, -0.000000000000000000, 1.000000000000000000 ) ) ;
#138 = ORIENTED_EDGE ( 'NONE', *, *, #363, .T. ) ;
#139 = AXIS2_PLACEMENT_3D ( 'NONE', #72, #375, #378 ) ;
#140 = CARTESIAN_POINT ( 'NONE',  ( 0.000000000000000000, 0.000000000000000000, 0.000000000000000000 ) ) ;
#141 = CIRCLE ( 'NONE', #158, 2.250000000000001776 ) ;
#142 = EDGE_LOOP ( 'NONE', ( #128, #323, #70, #54 ) ) ;
#143 = FACE_OUTER_BOUND ( 'NONE', #253, .T. ) ;
#144 = ORIENTED_EDGE ( 'NONE', *, *, #114, .T. ) ;
#145 = APPROVAL ( #179, 'UNSPECIFIED' ) ;
#146 = PERSON_AND_ORGANIZATION_ROLE ( 'design_owner' ) ;
#147 = ADVANCED_FACE ( 'NONE', ( #331 ), #346, .F. ) ;
#148 = EDGE_CURVE ( 'NONE', #37, #296, #220, .T. ) ;
#149 = CIRCLE ( 'NONE', #17, 2.249999999999999556 ) ;
#150 = VERTEX_POINT ( 'NONE', #191 ) ;
#151 = CC_DESIGN_SECURITY_CLASSIFICATION ( #228, ( #168 ) ) ;
#152 = APPLICATION_CONTEXT ( 'configuration controlled 3d designs of mechanical parts and assemblies' ) ;
#153 = DIRECTION ( 'NONE',  ( 0.000000000000000000, 0.000000000000000000, 1.000000000000000000 ) ) ;
#154 = LINE ( 'NONE', #15, #159 ) ;
#155 = AXIS2_PLACEMENT_3D ( 'NONE', #140, #171, #122 ) ;
#156 = ORIENTED_EDGE ( 'NONE', *, *, #231, .T. ) ;
#157 = DIRECTION ( 'NONE',  ( 0.000000000000000000, 0.000000000000000000, -1.000000000000000000 ) ) ;
#158 = AXIS2_PLACEMENT_3D ( 'NONE', #308, #277, #188 ) ;
#159 = VECTOR ( 'NONE', #214, 1000.000000000000000 ) ;
#160 = CARTESIAN_POINT ( 'NONE',  ( 145.0000000000000000, 10.00000000000000000, -145.0000000000000000 ) ) ;
#161 = CC_DESIGN_DATE_AND_TIME_ASSIGNMENT ( #357, #45, ( #228 ) ) ;
#162 = DIRECTION ( 'NONE',  ( 1.000000000000000000, 0.000000000000000000, 0.000000000000000000 ) ) ;
#163 = EDGE_CURVE ( 'NONE', #66, #43, #295, .T. ) ;
#164 = LINE ( 'NONE', #259, #304 ) ;
#165 = ORIENTED_EDGE ( 'NONE', *, *, #40, .T. ) ;
#166 = CARTESIAN_POINT ( 'NONE',  ( 137.7500000000000000, 5.000000000000000000, -145.0000000000000000 ) ) ;
#167 = CARTESIAN_POINT ( 'NONE',  ( 0.000000000000000000, 10.00000000000000000, 0.000000000000000000 ) ) ;
#168 = PRODUCT_DEFINITION_FORMATION_WITH_SPECIFIED_SOURCE ( 'ANY', '', #233, .NOT_KNOWN. ) ;
#169 = CIRCLE ( 'NONE', #265, 2.250000000000001776 ) ;
#170 = EDGE_CURVE ( 'NONE', #254, #194, #234, .T. ) ;
#171 = DIRECTION ( 'NONE',  ( 0.000000000000000000, 0.000000000000000000, 1.000000000000000000 ) ) ;
#172 = LOCAL_TIME ( 15, 58, 36.00000000000000000, #274 ) ;
#173 = VECTOR ( 'NONE', #157, 1000.000000000000000 ) ;
#174 = VERTEX_POINT ( 'NONE', #222 ) ;
#175 = ORIENTED_EDGE ( 'NONE', *, *, #376, .F. ) ;
#176 = AXIS2_PLACEMENT_3D ( 'NONE', #249, #22, #48 ) ;
#177 = LINE ( 'NONE', #317, #260 ) ;
#178 = LINE ( 'NONE', #336, #173 ) ;
#179 = APPROVAL_STATUS ( 'not_yet_approved' ) ;
#180 = ORIENTED_EDGE ( 'NONE', *, *, #340, .F. ) ;
#181 = EDGE_LOOP ( 'NONE', ( #201, #347, #175, #165 ) ) ;
#182 = PERSON_AND_ORGANIZATION_ROLE ( 'creator' ) ;
#183 = CARTESIAN_POINT ( 'NONE',  ( 5.000000000000000000, 5.000000000000000000, 0.000000000000000000 ) ) ;
#184 = VERTEX_POINT ( 'NONE', #80 ) ;
#185 = CARTESIAN_POINT ( 'NONE',  ( 5.000000000000000000, 5.000000000000000000, -145.0000000000000000 ) ) ;
#186 = CARTESIAN_POINT ( 'NONE',  ( 0.000000000000000000, 10.00000000000000000, 0.000000000000000000 ) ) ;
#187 = EDGE_CURVE ( 'NONE', #241, #312, #83, .T. ) ;
#188 = DIRECTION ( 'NONE',  ( 1.000000000000000000, 0.000000000000000000, 0.000000000000000000 ) ) ;
#189 = VECTOR ( 'NONE', #279, 1000.000000000000000 ) ;
#190 = ORIENTED_EDGE ( 'NONE', *, *, #148, .T. ) ;
#191 = CARTESIAN_POINT ( 'NONE',  ( 142.2500000000000284, 5.000000000000000000, 0.000000000000000000 ) ) ;
#192 = CALENDAR_DATE ( 2026, 16, 9 ) ;
#193 = DIRECTION ( 'NONE',  ( 1.000000000000000000, 0.000000000000000000, 0.000000000000000000 ) ) ;
#194 = VERTEX_POINT ( 'NONE', #384 ) ;
#195 = AXIS2_PLACEMENT_3D ( 'NONE', #167, #382, #355 ) ;
#196 = ORIENTED_EDGE ( 'NONE', *, *, #170, .T. ) ;
#197 = PLANE ( 'NONE',  #195 ) ;
#198 = LOCAL_TIME ( 15, 58, 36.00000000000000000, #27 ) ;
#199 = DIRECTION ( 'NONE',  ( -0.000000000000000000, -0.000000000000000000, 1.000000000000000000 ) ) ;
#200 = LINE ( 'NONE', #257, #224 ) ;
#201 = ORIENTED_EDGE ( 'NONE', *, *, #202, .T. ) ;
#202 = EDGE_CURVE ( 'NONE', #1, #194, #35, .T. ) ;
#203 = SHAPE_DEFINITION_REPRESENTATION ( #337, #301 ) ;
#204 = ORIENTED_EDGE ( 'NONE', *, *, #40, .F. ) ;
#205 = APPLICATION_PROTOCOL_DEFINITION ( 'international standard', 'config_control_design', 1994, #328 ) ;
#206 = DIRECTION ( 'NONE',  ( 0.000000000000000000, 0.000000000000000000, 1.000000000000000000 ) ) ;
#207 = EDGE_CURVE ( 'NONE', #312, #97, #117, .T. ) ;
#208 = VECTOR ( 'NONE', #245, 1000.000000000000000 ) ;
#209 = VERTEX_POINT ( 'NONE', #229 ) ;
#210 =( NAMED_UNIT ( * ) SI_UNIT ( $, .STERADIAN. ) SOLID_ANGLE_UNIT ( ) );
#211 = ADVANCED_FACE ( 'NONE', ( #12 ), #197, .F. ) ;
#212 = DATE_TIME_ROLE ( 'creation_date' ) ;
#213 = PERSON_AND_ORGANIZATION_ROLE ( 'creator' ) ;
#214 = DIRECTION ( 'NONE',  ( -0.000000000000000000, -1.000000000000000000, -0.000000000000000000 ) ) ;
#215 = ORIENTED_EDGE ( 'NONE', *, *, #28, .F. ) ;
#216 = COORDINATED_UNIVERSAL_TIME_OFFSET ( 7, 0, .AHEAD. ) ;
#217 = CARTESIAN_POINT ( 'NONE',  ( 145.0000000000000000, 10.00000000000000000, 0.000000000000000000 ) ) ;
#218 = PLANE ( 'NONE',  #352 ) ;
#219 = CARTESIAN_POINT ( 'NONE',  ( 137.7500000000000000, 5.000000000000000000, 0.000000000000000000 ) ) ;
#220 = CIRCLE ( 'NONE', #282, 2.249999999999999556 ) ;
#221 = ORIENTED_EDGE ( 'NONE', *, *, #148, .F. ) ;
#222 = CARTESIAN_POINT ( 'NONE',  ( 2.750000000000000444, 5.000000000000000000, -145.0000000000000000 ) ) ;
#223 = DIRECTION ( 'NONE',  ( -1.000000000000000000, -0.000000000000000000, -0.000000000000000000 ) ) ;
#224 = VECTOR ( 'NONE', #32, 1000.000000000000000 ) ;
#225 = ORIENTED_EDGE ( 'NONE', *, *, #6, .F. ) ;
#226 = CARTESIAN_POINT ( 'NONE',  ( 137.7500000000000000, 5.000000000000000000, -145.0000000000000000 ) ) ;
#227 = CARTESIAN_POINT ( 'NONE',  ( 5.000000000000000000, 5.000000000000000000, -145.0000000000000000 ) ) ;
#228 = SECURITY_CLASSIFICATION ( '', '', #13 ) ;
#229 = CARTESIAN_POINT ( 'NONE',  ( 0.000000000000000000, 10.00000000000000000, -145.0000000000000000 ) ) ;
#230 = CYLINDRICAL_SURFACE ( 'NONE', #25, 2.249999999999999556 ) ;
#231 = EDGE_CURVE ( 'NONE', #174, #296, #200, .T. ) ;
#232 = ORIENTED_EDGE ( 'NONE', *, *, #316, .T. ) ;
#233 = PRODUCT ( 'JIG-MOT097Z001-0_AP203', 'JIG-MOT097Z001-0_AP203', '', ( #93 ) ) ;
#234 = LINE ( 'NONE', #47, #208 ) ;
#235 = DIRECTION ( 'NONE',  ( -0.000000000000000000, -0.000000000000000000, 1.000000000000000000 ) ) ;
#236 = LOCAL_TIME ( 15, 58, 36.00000000000000000, #216 ) ;
#237 = CIRCLE ( 'NONE', #289, 2.249999999999999556 ) ;
#238 = ADVANCED_FACE ( 'NONE', ( #143 ), #374, .F. ) ;
#239 = CC_DESIGN_PERSON_AND_ORGANIZATION_ASSIGNMENT ( #87, #213, ( #168 ) ) ;
#240 = LINE ( 'NONE', #344, #338 ) ;
#241 = VERTEX_POINT ( 'NONE', #58 ) ;
#242 = APPROVAL_STATUS ( 'not_yet_approved' ) ;
#243 = PERSON_AND_ORGANIZATION ( #324, #256 ) ;
#244 = CARTESIAN_POINT ( 'NONE',  ( 145.0000000000000000, 0.000000000000000000, 0.000000000000000000 ) ) ;
#245 = DIRECTION ( 'NONE',  ( -0.000000000000000000, -1.000000000000000000, -0.000000000000000000 ) ) ;
#246 = CC_DESIGN_APPROVAL ( #60, ( #228 ) ) ;
#247 = VECTOR ( 'NONE', #300, 1000.000000000000000 ) ;
#248 = PERSON_AND_ORGANIZATION ( #324, #256 ) ;
#249 = CARTESIAN_POINT ( 'NONE',  ( 0.000000000000000000, 0.000000000000000000, 0.000000000000000000 ) ) ;
#250 = CARTESIAN_POINT ( 'NONE',  ( 145.0000000000000000, 10.00000000000000000, -145.0000000000000000 ) ) ;
#251 = DIRECTION ( 'NONE',  ( -0.000000000000000000, -0.000000000000000000, 1.000000000000000000 ) ) ;
#252 = VECTOR ( 'NONE', #71, 1000.000000000000000 ) ;
#253 = EDGE_LOOP ( 'NONE', ( #51, #86, #381, #225 ) ) ;
#254 = VERTEX_POINT ( 'NONE', #315 ) ;
#255 = CARTESIAN_POINT ( 'NONE',  ( 145.0000000000000000, 0.000000000000000000, -145.0000000000000000 ) ) ;
#256 = ORGANIZATION ( 'UNSPECIFIED', 'UNSPECIFIED', '' ) ;
#257 = CARTESIAN_POINT ( 'NONE',  ( 2.750000000000000444, 5.000000000000000000, -145.0000000000000000 ) ) ;
#258 = DIRECTION ( 'NONE',  ( -0.000000000000000000, -0.000000000000000000, 1.000000000000000000 ) ) ;
#259 = CARTESIAN_POINT ( 'NONE',  ( 0.000000000000000000, 10.00000000000000000, 0.000000000000000000 ) ) ;
#260 = VECTOR ( 'NONE', #110, 1000.000000000000000 ) ;
#261 = PLANE ( 'NONE',  #329 ) ;
#262 = DATE_AND_TIME ( #109, #361 ) ;
#263 = CC_DESIGN_DATE_AND_TIME_ASSIGNMENT ( #262, #212, ( #364 ) ) ;
#264 = FACE_OUTER_BOUND ( 'NONE', #142, .T. ) ;
#265 = AXIS2_PLACEMENT_3D ( 'NONE', #105, #373, #345 ) ;
#266 = ORIENTED_EDGE ( 'NONE', *, *, #114, .F. ) ;
#267 = ORIENTED_EDGE ( 'NONE', *, *, #187, .F. ) ;
#268 = CARTESIAN_POINT ( 'NONE',  ( 0.000000000000000000, 10.00000000000000000, -145.0000000000000000 ) ) ;
#269 = ORIENTED_EDGE ( 'NONE', *, *, #10, .F. ) ;
#270 = ADVANCED_FACE ( 'NONE', ( #74 ), #261, .F. ) ;
#271 = CIRCLE ( 'NONE', #73, 2.249999999999999556 ) ;
#272 = ORIENTED_EDGE ( 'NONE', *, *, #363, .F. ) ;
#273 = APPROVAL_ROLE ( '' ) ;
#274 = COORDINATED_UNIVERSAL_TIME_OFFSET ( 7, 0, .AHEAD. ) ;
#275 = APPROVAL_ROLE ( '' ) ;
#276 = VERTEX_POINT ( 'NONE', #255 ) ;
#277 = DIRECTION ( 'NONE',  ( 0.000000000000000000, 0.000000000000000000, 1.000000000000000000 ) ) ;
#278 = CALENDAR_DATE ( 2026, 16, 9 ) ;
#279 = DIRECTION ( 'NONE',  ( 1.000000000000000000, 0.000000000000000000, 0.000000000000000000 ) ) ;
#280 = FACE_BOUND ( 'NONE', #354, .T. ) ;
#281 = EDGE_LOOP ( 'NONE', ( #311, #370 ) ) ;
#282 = AXIS2_PLACEMENT_3D ( 'NONE', #309, #135, #348 ) ;
#283 = DIRECTION ( 'NONE',  ( 1.000000000000000000, 0.000000000000000000, -0.000000000000000000 ) ) ;
#284 = ORIENTED_EDGE ( 'NONE', *, *, #57, .T. ) ;
#285 = DIRECTION ( 'NONE',  ( 1.000000000000000000, 0.000000000000000000, 0.000000000000000000 ) ) ;
#286 = LOCAL_TIME ( 15, 58, 36.00000000000000000, #21 ) ;
#287 = DIRECTION ( 'NONE',  ( 1.000000000000000000, -0.000000000000000000, 0.000000000000000000 ) ) ;
#288 = CARTESIAN_POINT ( 'NONE',  ( 5.000000000000000000, 5.000000000000000000, -145.0000000000000000 ) ) ;
#289 = AXIS2_PLACEMENT_3D ( 'NONE', #288, #77, #379 ) ;
#290 = LINE ( 'NONE', #268, #252 ) ;
#291 = ORIENTED_EDGE ( 'NONE', *, *, #10, .T. ) ;
#292 = CC_DESIGN_APPROVAL ( #145, ( #364 ) ) ;
#293 = ORIENTED_EDGE ( 'NONE', *, *, #67, .T. ) ;
#294 = CARTESIAN_POINT ( 'NONE',  ( 7.249999999999999112, 5.000000000000000000, 0.000000000000000000 ) ) ;
#295 = LINE ( 'NONE', #217, #69 ) ;
#296 = VERTEX_POINT ( 'NONE', #53 ) ;
#297 = APPROVAL_STATUS ( 'not_yet_approved' ) ;
#298 = FACE_BOUND ( 'NONE', #111, .T. ) ;
#299 = ORIENTED_EDGE ( 'NONE', *, *, #63, .F. ) ;
#300 = DIRECTION ( 'NONE',  ( 0.000000000000000000, 0.000000000000000000, -1.000000000000000000 ) ) ;
#301 = ADVANCED_BREP_SHAPE_REPRESENTATION ( 'JIG-MOT097Z001-0_AP203', ( #335, #155 ), #2 ) ;
#302 = PLANE ( 'NONE',  #139 ) ;
#303 = DIRECTION ( 'NONE',  ( -0.000000000000000000, -1.000000000000000000, -0.000000000000000000 ) ) ;
#304 = VECTOR ( 'NONE', #112, 1000.000000000000000 ) ;
#305 = EDGE_LOOP ( 'NONE', ( #79, #267, #118, #14 ) ) ;
#306 = DIRECTION ( 'NONE',  ( 1.000000000000000000, 0.000000000000000000, 0.000000000000000000 ) ) ;
#307 = AXIS2_PLACEMENT_3D ( 'NONE', #55, #199, #193 ) ;
#308 = CARTESIAN_POINT ( 'NONE',  ( 140.0000000000000000, 5.000000000000000000, -145.0000000000000000 ) ) ;
#309 = CARTESIAN_POINT ( 'NONE',  ( 5.000000000000000000, 5.000000000000000000, 0.000000000000000000 ) ) ;
#310 = VECTOR ( 'NONE', #136, 1000.000000000000000 ) ;
#311 = ORIENTED_EDGE ( 'NONE', *, *, #187, .T. ) ;
#312 = VERTEX_POINT ( 'NONE', #166 ) ;
#313 = CARTESIAN_POINT ( 'NONE',  ( 7.249999999999999112, 5.000000000000000000, -145.0000000000000000 ) ) ;
#314 = PERSON_AND_ORGANIZATION ( #324, #256 ) ;
#315 = CARTESIAN_POINT ( 'NONE',  ( 0.000000000000000000, 10.00000000000000000, 0.000000000000000000 ) ) ;
#316 = EDGE_CURVE ( 'NONE', #184, #174, #237, .T. ) ;
#317 = CARTESIAN_POINT ( 'NONE',  ( 0.000000000000000000, 10.00000000000000000, 0.000000000000000000 ) ) ;
#318 = LINE ( 'NONE', #244, #247 ) ;
#319 = DIRECTION ( 'NONE',  ( -0.000000000000000000, -0.000000000000000000, 1.000000000000000000 ) ) ;
#320 = APPROVAL_PERSON_ORGANIZATION ( #126, #60, #275 ) ;
#321 = AXIS2_PLACEMENT_3D ( 'NONE', #30, #29, #283 ) ;
#322 = CYLINDRICAL_SURFACE ( 'NONE', #106, 2.249999999999999556 ) ;
#323 = ORIENTED_EDGE ( 'NONE', *, *, #67, .F. ) ;
#324 = PERSON ( 'UNSPECIFIED', 'UNSPECIFIED', 'UNSPECIFIED', ('UNSPECIFIED'), ('UNSPECIFIED'), ('UNSPECIFIED') ) ;
#325 = VECTOR ( 'NONE', #235, 1000.000000000000000 ) ;
#326 = ORIENTED_EDGE ( 'NONE', *, *, #34, .F. ) ;
#327 = PERSON_AND_ORGANIZATION ( #324, #256 ) ;
#328 = APPLICATION_CONTEXT ( 'configuration controlled 3d designs of mechanical parts and assemblies' ) ;
#329 = AXIS2_PLACEMENT_3D ( 'NONE', #52, #287, #82 ) ;
#330 = ADVANCED_FACE ( 'NONE', ( #23, #123, #9 ), #353, .F. ) ;
#331 = FACE_OUTER_BOUND ( 'NONE', #305, .T. ) ;
#332 = EDGE_LOOP ( 'NONE', ( #293, #204, #215, #144 ) ) ;
#333 = CARTESIAN_POINT ( 'NONE',  ( 5.000000000000000000, 5.000000000000000000, -145.0000000000000000 ) ) ;
#334 = DATE_AND_TIME ( #103, #172 ) ;
#335 = MANIFOLD_SOLID_BREP ( 'Cut-Extrude2 (4 Corner Holes Ø4.5 Thru)', #90 ) ;
#336 = CARTESIAN_POINT ( 'NONE',  ( 145.0000000000000000, 10.00000000000000000, 0.000000000000000000 ) ) ;
#337 = PRODUCT_DEFINITION_SHAPE ( 'NONE', 'NONE',  #364 ) ;
#338 = VECTOR ( 'NONE', #223, 1000.000000000000000 ) ;
#339 = DIRECTION ( 'NONE',  ( -0.000000000000000000, -1.000000000000000000, -0.000000000000000000 ) ) ;
#340 = EDGE_CURVE ( 'NONE', #184, #37, #131, .T. ) ;
#341 = ORIENTED_EDGE ( 'NONE', *, *, #340, .T. ) ;
#342 = APPROVAL_PERSON_ORGANIZATION ( #248, #145, #367 ) ;
#343 = DIRECTION ( 'NONE',  ( 1.000000000000000000, 0.000000000000000000, 0.000000000000000000 ) ) ;
#344 = CARTESIAN_POINT ( 'NONE',  ( 0.000000000000000000, 0.000000000000000000, -145.0000000000000000 ) ) ;
#345 = DIRECTION ( 'NONE',  ( 1.000000000000000000, 0.000000000000000000, 0.000000000000000000 ) ) ;
#346 = CYLINDRICAL_SURFACE ( 'NONE', #369, 2.250000000000001776 ) ;
#347 = ORIENTED_EDGE ( 'NONE', *, *, #170, .F. ) ;
#348 = DIRECTION ( 'NONE',  ( 1.000000000000000000, 0.000000000000000000, 0.000000000000000000 ) ) ;
#349 = DESIGN_CONTEXT ( 'detailed design', #152, 'design' ) ;
#350 = APPROVAL_DATE_TIME ( #44, #60 ) ;
#351 = CARTESIAN_POINT ( 'NONE',  ( 140.0000000000000000, 5.000000000000000000, -145.0000000000000000 ) ) ;
#352 = AXIS2_PLACEMENT_3D ( 'NONE', #186, #101, #372 ) ;
#353 = PLANE ( 'NONE',  #321 ) ;
#354 = EDGE_LOOP ( 'NONE', ( #76, #5 ) ) ;
#355 = DIRECTION ( 'NONE',  ( 0.000000000000000000, -0.000000000000000000, -1.000000000000000000 ) ) ;
#356 = ORIENTED_EDGE ( 'NONE', *, *, #63, .T. ) ;
#357 = DATE_AND_TIME ( #383, #198 ) ;
#358 = CC_DESIGN_PERSON_AND_ORGANIZATION_ASSIGNMENT ( #243, #95, ( #228 ) ) ;
#359 = ORIENTED_EDGE ( 'NONE', *, *, #316, .F. ) ;
#360 = CARTESIAN_POINT ( 'NONE',  ( 142.2500000000000284, 5.000000000000000000, -145.0000000000000000 ) ) ;
#361 = LOCAL_TIME ( 15, 58, 36.00000000000000000, #91 ) ;
#362 = ADVANCED_FACE ( 'NONE', ( #380 ), #230, .F. ) ;
#363 = EDGE_CURVE ( 'NONE', #254, #66, #164, .T. ) ;
#364 = PRODUCT_DEFINITION ( 'UNKNOWN', '', #168, #349 ) ;
#365 = LINE ( 'NONE', #360, #325 ) ;
#366 = ORIENTED_EDGE ( 'NONE', *, *, #231, .F. ) ;
#367 = APPROVAL_ROLE ( '' ) ;
#368 = CARTESIAN_POINT ( 'NONE',  ( 0.000000000000000000, 0.000000000000000000, -145.0000000000000000 ) ) ;
#369 = AXIS2_PLACEMENT_3D ( 'NONE', #20, #104, #306 ) ;
#370 = ORIENTED_EDGE ( 'NONE', *, *, #84, .T. ) ;
#371 = DATE_AND_TIME ( #192, #236 ) ;
#372 = DIRECTION ( 'NONE',  ( -1.000000000000000000, 0.000000000000000000, -0.000000000000000000 ) ) ;
#373 = DIRECTION ( 'NONE',  ( 0.000000000000000000, 0.000000000000000000, 1.000000000000000000 ) ) ;
#374 = CYLINDRICAL_SURFACE ( 'NONE', #307, 2.250000000000001776 ) ;
#375 = DIRECTION ( 'NONE',  ( -1.000000000000000000, 0.000000000000000000, 0.000000000000000000 ) ) ;
#376 = EDGE_CURVE ( 'NONE', #209, #254, #177, .T. ) ;
#377 = EDGE_LOOP ( 'NONE', ( #326, #156, #291, #180 ) ) ;
#378 = DIRECTION ( 'NONE',  ( 0.000000000000000000, 0.000000000000000000, 1.000000000000000000 ) ) ;
#379 = DIRECTION ( 'NONE',  ( 1.000000000000000000, 0.000000000000000000, 0.000000000000000000 ) ) ;
#380 = FACE_OUTER_BOUND ( 'NONE', #96, .T. ) ;
#381 = ORIENTED_EDGE ( 'NONE', *, *, #100, .T. ) ;
#382 = DIRECTION ( 'NONE',  ( 0.000000000000000000, -1.000000000000000000, 0.000000000000000000 ) ) ;
#383 = CALENDAR_DATE ( 2026, 16, 9 ) ;
#384 = CARTESIAN_POINT ( 'NONE',  ( 0.000000000000000000, 0.000000000000000000, 0.000000000000000000 ) ) ;
#385 = CARTESIAN_POINT ( 'NONE',  ( 0.000000000000000000, 0.000000000000000000, 0.000000000000000000 ) ) ;
ENDSEC;
END-ISO-10303-21;
